<?xml version="1.0" encoding="UTF-8" standalone="no"?>
<!-- Generator: Adobe Illustrator 26.3.1, SVG Export Plug-In . SVG Version: 6.00 Build 0)  -->

<svg
   version="1.1"
   id="Layer_1"
   x="0px"
   y="0px"
   viewBox="0 0 400 137.69455"
   xml:space="preserve"
   width="400"
   height="137.69455"
   xmlns="http://www.w3.org/2000/svg"
   xmlns:svg="http://www.w3.org/2000/svg"><defs
     id="defs31" /><path
     d="M 87.192592,47.223827 27.947849,47.213591 0,75.163849 V 1.926815 h 132.46852 v 0.010834 z"
     fill="white"
     style="fill:#ffffff;fill-opacity:1;stroke-width:0.602129"
     id="path824" /><path
     d="M 132.46852,24.559667 V 38.538709 L 97.908091,73.110585 38.674187,73.098541 0.01083834,111.77333 V 97.773815 L 34.570673,63.212781 H 93.81542 Z"
     fill="white"
     style="fill:#ffffff;fill-opacity:1;stroke-width:0.602129"
     id="path826" /><path
     d="M 104.53092,89.10917 45.297012,89.097126 0,134.39534 H 132.46852 V 61.171561 Z"
     fill="white"
     style="fill:#ffffff;fill-opacity:1;stroke-width:0.602129"
     id="path828" /><path
     d="m 180.55823,28.998566 h 13.92965 v 7.249641 H 172.73897 V 0 h 7.81926 z m 19.23562,7.249641 V 0 h 7.81927 v 36.248207 z m 37.93237,-19.107983 c 3.15877,1.708844 5.02297,4.815833 5.02297,8.699569 0,5.799713 -5.12655,10.460197 -11.44409,10.460197 H 215.92551 V 0.05178315 h 14.96534 c 6.26576,0 10.92625,3.98730265 10.92625,9.32096765 0,3.1069902 -1.55351,6.0068452 -4.09088,7.7674732 z m -3.52125,-6.576461 c 0,-2.2784584 -1.60529,-3.8319532 -4.03909,-3.8319532 h -6.57646 v 7.7156892 h 6.57646 c 2.4338,0 4.03909,-1.605278 4.03909,-3.883736 z m -3.62481,18.538369 c 2.58914,0 4.29799,-1.708843 4.29799,-4.09087 0,-2.330242 -1.70885,-4.039085 -4.29799,-4.039085 h -6.99074 v 8.129955 z m 26.38833,-0.103566 h 14.49926 v 7.249641 H 249.14922 V 0 h 21.74893 v 7.2496417 h -13.92966 v 7.1978573 h 12.58329 v 7.094293 h -12.58329 z m 41.04296,7.249641 -7.0943,-12.32439 h -5.02296 v 12.32439 h -7.81926 V 0 h 14.60285 c 7.24963,0 12.68686,5.0229657 12.68686,12.013692 0,4.764049 -2.58915,8.596002 -6.62823,10.563763 l 8.0264,13.670752 z M 285.89419,7.2496417 v 9.4245333 h 6.26576 c 3.31412,0 5.23009,-1.96776 5.23009,-4.712266 0,-2.6927246 -1.91597,-4.7122673 -5.23009,-4.7122673 z M 336.56219,0 V 7.3014247 H 326.46447 V 36.248207 h -7.81925 V 7.3014247 H 308.5475 V 0 Z m 13.10053,28.998566 h 14.49929 v 7.249641 H 341.84347 V 0 h 21.74892 v 7.2496417 h -13.92967 v 7.1978573 h 12.58332 v 7.094293 h -12.58332 z m 49.17293,7.249641 h -8.80313 l -7.14608,-12.427957 -7.24965,12.427957 h -8.85491 L 378.0706,17.243789 367.50684,0 h 8.80313 l 6.4729,11.185161 L 389.30756,0 h 8.59599 L 387.49514,17.554489 Z M 184.75266,88.753915 c -8.3371,0 -14.08503,-4.660481 -14.08503,-12.427955 h 7.92282 c 0,3.474287 2.89987,5.178311 6.11043,5.178311 2.95164,0 5.85149,-1.553493 5.85149,-4.245008 0,-2.848075 -3.31413,-3.624825 -7.24965,-4.503935 -5.489,-1.348767 -12.11726,-2.950432 -12.11726,-10.770895 0,-6.938941 5.12654,-10.874461 13.15293,-10.874461 8.33709,0 13.04935,4.453352 13.04935,11.702994 h -7.71569 c 0,-3.158774 -2.58915,-4.608702 -5.54079,-4.608702 -2.53738,0 -5.07474,1.087446 -5.07474,3.46947 0,2.537377 3.10697,3.314121 6.99072,4.246219 5.489,1.398145 12.42796,3.108192 12.42796,11.236943 0,7.821668 -6.21399,11.597019 -13.72254,11.597019 z m 37.2393,0.108377 c -11.08159,0 -19.3669,-8.182941 -19.3669,-18.95504 0,-10.719112 8.28531,-18.90085 19.3669,-18.90085 11.02981,0 19.26335,8.129955 19.26335,18.90085 0,10.820273 -8.23354,18.95504 -19.26335,18.95504 z m 0,-7.40619 c 6.4729,0 11.28874,-4.973593 11.28874,-11.54885 0,-6.576458 -4.81584,-11.49586 -11.28874,-11.49586 -6.47289,0 -11.39229,4.97118 -11.39229,11.49586 0,6.527086 4.9194,11.54885 11.39229,11.54885 z m 42.06057,7.40619 c -10.66733,0 -18.7455,-8.182941 -18.7455,-18.900847 0,-10.773305 8.07817,-18.955043 18.7455,-18.955043 8.80314,0 15.84566,5.851497 17.50271,14.447501 h -7.81926 c -1.50171,-4.246219 -5.12653,-6.938943 -9.68345,-6.938943 -6.16219,0 -10.7709,4.919399 -10.7709,11.446485 0,6.521064 4.60871,11.392293 10.7709,11.392293 4.76405,0 8.44065,-2.902263 9.73523,-7.460385 h 7.92283 c -1.65705,8.95969 -8.69957,14.968939 -17.65806,14.968939 z m 23.32771,-0.830938 V 51.783153 h 7.81926 v 36.248205 z m 40.15904,0 -2.53738,-6.834171 h -14.39572 l -2.48558,6.834171 h -8.3371 l 14.24038,-36.248205 h 7.40498 L 336.0835,88.031354 Z M 317.80405,61.363032 313.04,74.363013 h 9.52811 z m 30.69536,19.418681 h 13.92968 v 7.249641 H 340.68016 V 51.783153 h 7.81925 z"
     fill="white"
     style="fill:#ffffff;fill-opacity:1;stroke-width:0.602129"
     id="path830" /><path
     d="m 182.28633,131.15589 c -7.0136,0 -12.10522,-5.09402 -12.10522,-12.13892 0,-7.08106 5.09162,-12.17508 12.10522,-12.17508 5.46252,0 9.84604,3.23946 11.1948,8.32745 h -3.03473 c -1.24762,-3.40203 -4.28235,-5.46132 -8.16007,-5.46132 -5.26021,0 -9.07048,3.87772 -9.07048,9.30895 0,5.42517 3.81027,9.23666 9.07048,9.23666 3.97888,0 7.04732,-2.15563 8.29495,-5.76841 h 3.001 c -1.34876,5.32885 -5.73227,8.67067 -11.29595,8.67067 z m 24.2568,0.0301 c -5.52996,0 -9.67744,-4.04631 -9.67744,-9.50762 0,-5.46131 4.14748,-9.47753 9.67744,-9.47753 5.49623,0 9.6437,4.04632 9.6437,9.47753 0,5.46131 -4.14747,9.50762 -9.6437,9.50762 z m 0,-2.76377 c 3.87771,0 6.71013,-2.83001 6.71013,-6.70772 0,-3.91386 -2.83242,-6.74386 -6.71013,-6.74386 -3.91144,0 -6.74387,2.83 -6.74387,6.70773 0,3.91384 2.83243,6.74385 6.74387,6.74385 z m 24.35133,-16.22138 c 5.4288,0 9.34023,4.04632 9.34023,9.47753 0,5.4312 -3.91143,9.50762 -9.34023,9.50762 -2.73127,0 -5.12533,-1.04169 -6.81129,-2.83 v 8.93561 h -2.86613 v -24.71739 h 1.98943 l 0.57322,2.7999 c 1.68596,-1.99304 4.18118,-3.17322 7.11477,-3.17322 z m -0.20232,16.22138 c 3.84401,0 6.67641,-2.86613 6.67641,-6.74385 0,-3.8416 -2.8324,-6.70773 -6.67641,-6.70773 -3.87772,0 -6.71014,2.89623 -6.71014,6.70773 0,3.84159 2.83242,6.74385 6.71014,6.74385 z m 27.33789,-15.84801 h 3.06845 l -8.69957,18.98515 c -1.95572,4.31727 -3.67539,5.73228 -7.11475,5.73228 h -1.71969 v -2.59519 h 1.44992 c 2.46151,0 3.3045,-0.74664 4.78814,-3.78136 l 0.64066,-1.34877 -8.09262,-16.99211 h 3.10219 l 6.47408,13.78877 z m 29.7434,-5.39507 v 2.7999 h -7.1822 v 20.80358 h -2.93358 v -20.80358 h -7.1822 v -2.7999 z m 10.59086,5.32883 h 1.61851 v 2.69755 h -1.85454 c -3.3382,0 -5.22649,2.15562 -5.22649,5.69614 v 9.88096 h -2.86613 v -18.20841 h 2.05687 l 0.43835,2.7999 c 1.31504,-1.89068 3.20334,-2.86614 5.83343,-2.86614 z m 20.33754,0.0662 h 2.25918 v 18.20841 h -2.36034 l -0.30347,-2.73367 c -1.68597,1.95692 -4.1812,3.13709 -7.14851,3.13709 -5.39507,0 -9.44138,-4.07643 -9.44138,-9.4715 0,-5.46733 4.04631,-9.51365 9.44138,-9.51365 2.96731,0 5.49625,1.18018 7.18223,3.17322 z m -7.3508,15.84805 c 3.87771,0 6.67641,-2.86613 6.67641,-6.74384 0,-3.84161 -2.7987,-6.70774 -6.67641,-6.70774 -3.84401,0 -6.71015,2.89624 -6.71015,6.70774 0,3.84159 2.86614,6.74384 6.71015,6.74384 z m 30.75918,-22.32094 h 2.86616 v 24.71743 h -2.22549 l -0.37091,-2.60121 c -1.68596,1.85456 -4.14748,2.9685 -7.01361,2.9685 -5.46251,0 -9.40768,-4.07643 -9.40768,-9.4715 0,-5.46733 3.94517,-9.51365 9.40768,-9.51365 2.69753,0 5.05789,1.01159 6.74385,2.69754 z m -6.54152,22.32094 c 3.87771,0 6.71012,-2.90225 6.71012,-6.70772 0,-3.84762 -2.83241,-6.74386 -6.71012,-6.74386 -3.84401,0 -6.67642,2.86613 -6.67642,6.74386 0,3.84159 2.83241,6.70772 6.67642,6.70772 z m 15.76014,-18.98514 v -3.26957 h 3.10215 v 3.26957 z m 0.10114,21.3455 v -18.20841 h 2.86613 v 18.20841 z m 18.40589,-18.58173 c 4.34979,0 7.04733,3.23945 7.04733,7.6892 v 10.89253 h -2.86613 v -10.21814 c 0,-3.673 -1.7534,-5.76239 -4.88929,-5.76239 -3.1359,0 -5.52996,2.66141 -5.52996,6.06946 v 9.91107 h -2.86614 v -18.20841 h 2.05687 l 0.53951,2.86613 c 1.38249,-2.02314 3.70912,-3.23945 6.50781,-3.23945 z m 28.2435,0.37332 1.92201,0.0361 v 15.64334 c 0,5.86474 -3.37194,9.44139 -8.93562,9.44139 -4.45094,0 -7.62054,-2.32422 -8.5984,-6.17183 h 2.86614 c 0.80925,2.25798 3.10217,3.54053 5.73226,3.54053 3.64169,0 6.13692,-2.39047 6.13692,-6.43678 v -1.11394 c -1.61853,1.68597 -3.94517,2.69755 -6.6427,2.69755 -5.05789,0 -8.93562,-3.91384 -8.93562,-9.00185 0,-5.05788 3.87773,-9.00786 8.93562,-9.00786 2.93357,0 5.42879,1.21631 7.08104,3.20334 z m -7.21592,14.90272 c 3.67541,0 6.3055,-2.66141 6.3055,-6.26818 0,-3.61278 -2.66382,-6.27419 -6.3055,-6.27419 -3.64168,0 -6.33922,2.69754 -6.33922,6.27419 0,3.57064 2.69754,6.26818 6.33922,6.26818 z"
     fill="white"
     style="fill:#ffffff;fill-opacity:1;stroke-width:0.602129"
     id="path832" /></svg>
